<svg width="282" height="68" viewBox="0 0 282 68" fill="none" xmlns="http://www.w3.org/2000/svg">
<g clip-path="url(#clip0)">
<path d="M56.9619 13.7156C56.8521 13.1808 56.5147 12.7254 56.0362 12.4665L52.4872 10.5455C52.1635 10.3704 51.9104 10.0851 51.7739 9.74232C51.38 8.75352 50.6435 7.94181 49.6999 7.4568C49.6881 7.45075 49.6763 7.44493 49.6642 7.43936L47.2362 6.32349C47.4585 5.31083 47.5785 4.08728 47.4211 2.71364C47.3745 2.30724 47.0633 1.98212 46.6608 1.91962C46.2575 1.85724 45.8641 2.07261 45.6974 2.44594C45.2981 3.34122 43.8909 5.19854 41.8364 7.54184C40.888 8.62367 40.0238 9.80458 39.2682 11.0519L36.4816 15.6513C35.4314 17.3843 33.7912 18.6719 31.8627 19.2767C20.1546 22.9496 14.8931 23.4373 12.7962 23.399C12.0997 23.3867 11.422 23.5046 10.791 23.736L10.0904 22.7658C9.79703 22.3595 9.23143 22.2695 8.82739 22.5639C8.42312 22.8586 8.33317 23.4267 8.62652 23.8327L9.21069 24.6418C8.9523 24.8551 8.71104 25.0924 8.49257 25.355C6.91441 27.2521 6.17302 30.0306 6.28901 33.6133C6.31143 34.3069 6.23982 35.0056 6.07596 35.6902C5.61972 37.5987 4.62332 40.1376 0.692941 44.4989C0.547291 44.6604 0.464338 44.8692 0.459274 45.087C0.402606 47.4798 0.150491 51.3989 0.00532362 53.5221C-0.0390466 54.1723 0.189315 54.8183 0.632052 55.2947C1.07491 55.7712 1.70104 56.0444 2.34995 56.0444H3.83189C4.81888 56.0444 5.62189 55.2376 5.62189 54.2462C5.62189 53.2044 5.06437 52.2331 4.1672 51.7113C4.15912 51.7065 4.15466 51.6973 4.15611 51.688L4.73714 48.0098C4.78585 47.7014 4.96031 47.4223 5.2158 47.2444L8.94097 44.6483C12.1225 42.4311 14.7542 39.6206 16.763 36.295L16.7634 36.2943C17.6792 34.7787 19.4449 34.049 21.1574 34.4787L34.2128 37.7548L34.7936 48.4156C34.8708 49.8308 35.1486 51.2262 35.6199 52.5629L35.8521 53.2216C36.274 54.4183 37.4066 55.2225 38.6703 55.2225H39.1145C40.0427 55.2225 40.8423 54.5892 41.0589 53.6827C41.1925 53.1238 41.1027 52.5452 40.8065 52.0549C40.7324 51.9317 40.6328 51.8215 40.5018 51.7174C39.6351 51.0306 39.057 50.1539 38.8291 49.1808L38.8148 49.1201C38.7856 48.9951 38.78 48.8673 38.7984 48.7404L40.7251 35.4454C43.8781 32.8326 44.5934 29.7898 44.6291 27.6695C44.6871 24.2201 45.0537 20.9528 45.7188 17.9582C45.94 16.9618 46.125 16.097 46.2718 15.3719C48.1927 16.2843 50.6724 16.7198 52.5729 16.9274C54.1258 17.0967 55.6327 16.4627 56.6039 15.2306C56.9411 14.8025 57.0716 14.2504 56.9619 13.7156ZM55.1858 14.1027C54.6029 14.8421 53.699 15.2229 52.7681 15.1211C49.7913 14.7959 47.4368 14.1181 46.1385 13.2123C45.8859 13.0359 45.561 13.0008 45.2764 13.1192C44.992 13.2377 44.7871 13.4935 44.7327 13.7979C44.5778 14.6655 44.3156 15.932 43.9534 17.5627C43.2619 20.6769 42.8808 24.067 42.8205 27.639C42.7907 29.4092 42.2349 31.0041 41.1654 32.405L41.8544 27.6509C41.9263 27.1544 41.584 26.6933 41.0898 26.6211C40.5962 26.5493 40.1367 26.8927 40.0646 27.3892L37.0082 48.479C36.957 48.8326 36.9724 49.1883 37.0541 49.5374L37.0684 49.5982C37.3826 50.9404 38.1514 52.1401 39.294 53.074C39.3092 53.1228 39.3173 53.1859 39.2999 53.2586C39.2792 53.3452 39.2028 53.4058 39.1141 53.4058H38.67C38.1705 53.4058 37.7231 53.088 37.5565 52.6153L37.3244 51.9567C36.9107 50.7834 36.6669 49.5587 36.5993 48.3167L35.8083 33.7991C35.7809 33.2981 35.357 32.9129 34.8559 32.9416C34.3572 32.9691 33.9752 33.3974 34.0024 33.8983L34.1091 35.8563L21.5954 32.7161C20.7044 32.4925 19.8033 32.4857 18.9527 32.6697L19.6438 31.5256C19.9028 31.0965 19.7668 30.5379 19.3399 30.2776C18.9132 30.0173 18.3569 30.1539 18.0976 30.5829L15.2166 35.3526C13.3401 38.4592 10.8818 41.0845 7.90997 43.1556L4.1848 45.7517C3.52612 46.2108 3.07627 46.9302 2.95076 47.7253L2.36972 51.4033C2.25168 52.1495 2.60966 52.9051 3.26074 53.2839C3.59605 53.4789 3.80645 53.8393 3.81308 54.2278H2.34995C2.14522 54.2278 2.01392 54.1195 1.95399 54.0549C1.89407 53.9905 1.79568 53.8517 1.80967 53.6468C1.94929 51.6049 2.18718 47.911 2.25844 45.4678C6.27647 40.953 7.33436 38.2078 7.83473 36.1149C8.03621 35.2722 8.12434 34.4108 8.09673 33.5547C7.99702 30.4754 8.61386 28.043 9.88046 26.5204C10.5763 25.6841 11.6565 25.1949 12.7645 25.216C12.8495 25.2174 12.9349 25.2181 13.0222 25.2181C18.2081 25.2179 27.3571 22.5938 32.4018 21.0113C34.7501 20.2747 36.7476 18.7068 38.0263 16.5962L40.813 11.9967C41.5139 10.8399 42.3147 9.74523 43.1934 8.74298C44.0733 7.7394 44.8225 6.84375 45.4382 6.05894C45.1089 7.46104 44.5618 8.32932 44.5409 8.36214C44.2664 8.77981 44.3798 9.34222 44.7951 9.61937C45.2109 9.89713 45.7722 9.78338 46.0487 9.36548C46.0784 9.3203 46.3777 8.8589 46.696 8.07336L48.8925 9.08276C49.0244 9.1518 49.1488 9.23211 49.2656 9.32175C48.8222 9.41357 48.5077 9.82626 48.5483 10.2904C48.5897 10.7632 48.9843 11.1195 49.448 11.1195C49.4746 11.1195 49.5013 11.1183 49.5283 11.116L50.4225 11.037C50.7277 11.4967 51.1399 11.8803 51.6292 12.1451L55.1782 14.066C55.1829 14.0685 55.1882 14.0715 55.1905 14.0826C55.1929 14.0937 55.1893 14.0982 55.1858 14.1027Z" fill="#DF9A9A"/>
</g>
<path d="M80.5603 52.1766L80.7478 52.9032L80.9588 52.1766L91.6931 22.2704H94.8572L82.1541 56.3954H79.3884L66.6853 22.2704H69.8259L80.5603 52.1766ZM104.189 56.8641C102.033 56.8641 100.08 56.3329 98.3297 55.2704C96.5953 54.2079 95.2438 52.7313 94.275 50.8407C93.3063 48.9344 92.8219 46.8016 92.8219 44.4423V43.4344C92.8219 40.9969 93.2906 38.8016 94.2281 36.8485C95.1813 34.8954 96.5016 33.3641 98.1891 32.2548C99.8766 31.1298 101.705 30.5673 103.673 30.5673C106.752 30.5673 109.189 31.6219 110.986 33.7313C112.798 35.8251 113.705 38.6923 113.705 42.3329V43.9032H95.6109V44.4423C95.6109 47.3173 96.4313 49.7157 98.0719 51.6376C99.7281 53.5438 101.806 54.4969 104.306 54.4969C105.806 54.4969 107.127 54.2235 108.267 53.6766C109.423 53.1298 110.47 52.2548 111.408 51.0516L113.166 52.3876C111.103 55.3719 108.111 56.8641 104.189 56.8641ZM103.673 32.9579C101.564 32.9579 99.7828 33.7313 98.3297 35.2782C96.8922 36.8251 96.0172 38.9032 95.7047 41.5126H110.916V41.2079C110.838 38.7704 110.142 36.786 108.83 35.2548C107.517 33.7235 105.798 32.9579 103.673 32.9579ZM119.685 24.5438V31.036H124.935V33.3329H119.685V50.2313C119.685 51.6376 119.935 52.6844 120.435 53.3719C120.951 54.0594 121.802 54.4032 122.99 54.4032C123.458 54.4032 124.216 54.3251 125.263 54.1688L125.38 56.4657C124.646 56.7313 123.646 56.8641 122.38 56.8641C120.458 56.8641 119.06 56.3094 118.185 55.2001C117.31 54.0751 116.873 52.4266 116.873 50.2548V33.3329H112.208V31.036H116.873V24.5438H119.685ZM145.403 40.8798L155.833 22.2704H159.161L146.833 43.5516V56.3954H143.95V43.5516L131.646 22.2704H135.068L145.403 40.8798ZM156.54 43.3407C156.54 40.9032 157.009 38.7079 157.946 36.7548C158.899 34.8016 160.235 33.286 161.954 32.2079C163.688 31.1141 165.649 30.5673 167.837 30.5673C171.212 30.5673 173.946 31.7548 176.04 34.1298C178.134 36.4891 179.181 39.6219 179.181 43.5282V44.1141C179.181 46.5673 178.704 48.7782 177.751 50.7469C176.813 52.7001 175.485 54.2079 173.767 55.2704C172.048 56.3329 170.087 56.8641 167.884 56.8641C164.524 56.8641 161.79 55.6844 159.681 53.3251C157.587 50.9501 156.54 47.8094 156.54 43.9032V43.3407ZM159.353 44.1141C159.353 47.1454 160.134 49.6376 161.696 51.5907C163.274 53.5282 165.337 54.4969 167.884 54.4969C170.415 54.4969 172.462 53.5282 174.024 51.5907C175.603 49.6376 176.392 47.0673 176.392 43.8798V43.3407C176.392 41.4032 176.032 39.6298 175.313 38.0204C174.595 36.411 173.587 35.1688 172.29 34.2938C170.993 33.4032 169.509 32.9579 167.837 32.9579C165.337 32.9579 163.298 33.9423 161.72 35.911C160.142 37.8641 159.353 40.4266 159.353 43.5985V44.1141ZM197.466 53.1844C195.778 55.6376 193.083 56.8641 189.38 56.8641C186.677 56.8641 184.622 56.0829 183.216 54.5204C181.809 52.9423 181.091 50.6141 181.059 47.536V31.036H183.848V47.1844C183.848 52.0126 185.802 54.4266 189.708 54.4266C193.77 54.4266 196.341 52.7469 197.419 49.3876V31.036H200.231V56.3954H197.513L197.466 53.1844ZM215.423 33.4266C214.829 33.3173 214.196 33.2626 213.524 33.2626C211.774 33.2626 210.29 33.7548 209.071 34.7391C207.868 35.7079 207.008 37.1219 206.493 38.9813V56.3954H203.704V31.036H206.446L206.493 35.0673C207.977 32.0673 210.36 30.5673 213.641 30.5673C214.423 30.5673 215.04 30.6688 215.493 30.8719L215.423 33.4266ZM227.407 42.4969V56.3954H224.524V22.2704H236.149C239.696 22.2704 242.493 23.1766 244.539 24.9891C246.602 26.8016 247.633 29.2938 247.633 32.4657C247.633 35.6688 246.641 38.1454 244.657 39.8954C242.688 41.6298 239.828 42.4969 236.078 42.4969H227.407ZM227.407 40.0594H236.149C238.946 40.0594 241.078 39.3954 242.547 38.0673C244.016 36.7391 244.75 34.8876 244.75 32.5126C244.75 30.1532 244.016 28.2782 242.547 26.8876C241.094 25.4813 239.024 24.7626 236.336 24.7313H227.407V40.0594ZM259.098 56.8641C256.942 56.8641 254.988 56.3329 253.238 55.2704C251.504 54.2079 250.153 52.7313 249.184 50.8407C248.215 48.9344 247.731 46.8016 247.731 44.4423V43.4344C247.731 40.9969 248.199 38.8016 249.137 36.8485C250.09 34.8954 251.41 33.3641 253.098 32.2548C254.785 31.1298 256.613 30.5673 258.582 30.5673C261.66 30.5673 264.098 31.6219 265.895 33.7313C267.707 35.8251 268.613 38.6923 268.613 42.3329V43.9032H250.52V44.4423C250.52 47.3173 251.34 49.7157 252.981 51.6376C254.637 53.5438 256.715 54.4969 259.215 54.4969C260.715 54.4969 262.035 54.2235 263.176 53.6766C264.332 53.1298 265.379 52.2548 266.317 51.0516L268.074 52.3876C266.012 55.3719 263.02 56.8641 259.098 56.8641ZM258.582 32.9579C256.473 32.9579 254.692 33.7313 253.238 35.2782C251.801 36.8251 250.926 38.9032 250.613 41.5126H265.824V41.2079C265.746 38.7704 265.051 36.786 263.738 35.2548C262.426 33.7235 260.707 32.9579 258.582 32.9579ZM274.594 24.5438V31.036H279.844V33.3329H274.594V50.2313C274.594 51.6376 274.844 52.6844 275.344 53.3719C275.859 54.0594 276.711 54.4032 277.898 54.4032C278.367 54.4032 279.125 54.3251 280.172 54.1688L280.289 56.4657C279.555 56.7313 278.555 56.8641 277.289 56.8641C275.367 56.8641 273.969 56.3094 273.094 55.2001C272.219 54.0751 271.781 52.4266 271.781 50.2548V33.3329H267.117V31.036H271.781V24.5438H274.594Z" fill="#DF9A9A"/>
<defs>
<clipPath id="clip0">
<rect width="57" height="57.2651" fill="white" transform="translate(0 0.344238)"/>
</clipPath>
</defs>
</svg>
