<svg width="154" height="153" viewBox="0 0 154 153" fill="none" xmlns="http://www.w3.org/2000/svg">
<path d="M153.897 33.8372C153.601 32.3385 152.689 31.0625 151.396 30.3367L141.808 24.9537C140.933 24.4629 140.249 23.6635 139.881 22.7028C138.816 19.9319 136.827 17.6572 134.277 16.298C134.245 16.281 134.213 16.2648 134.181 16.2491L127.621 13.1221C128.222 10.2843 128.546 6.85548 128.121 3.00609C127.994 1.86723 127.154 0.956136 126.066 0.780979C124.977 0.606161 123.914 1.20971 123.464 2.2559C122.385 4.76479 118.583 9.96961 113.032 16.5363C110.47 19.568 108.135 22.8773 106.093 26.3726L98.5646 39.2616C95.7273 44.1182 91.2957 47.7266 86.0856 49.4214C54.453 59.714 40.2378 61.0806 34.5726 60.9733C32.6907 60.939 30.8597 61.2693 29.155 61.9177L27.262 59.199C26.4695 58.0605 24.9414 57.8083 23.8498 58.6331C22.7575 59.459 22.5145 61.0511 23.3071 62.1889L24.8853 64.4561C24.1873 65.0539 23.5354 65.7189 22.9452 66.4548C18.6814 71.771 16.6783 79.5573 16.9917 89.5973C17.0523 91.541 16.8588 93.499 16.4161 95.4175C15.1834 100.766 12.4914 107.881 1.87249 120.103C1.47898 120.555 1.25486 121.14 1.24118 121.751C1.08807 128.456 0.40692 139.438 0.0147129 145.388C-0.105164 147.21 0.511813 149.021 1.70798 150.356C2.90447 151.691 4.59611 152.457 6.34932 152.457H10.3532C13.0198 152.457 15.1893 150.196 15.1893 147.418C15.1893 144.498 13.683 141.776 11.2591 140.314C11.2372 140.301 11.2252 140.275 11.2291 140.249L12.7989 129.941C12.9305 129.077 13.4019 128.295 14.0922 127.796L24.1566 120.521C32.7523 114.308 39.8625 106.432 45.2899 97.1124L45.2909 97.1104C47.7653 92.8632 52.5356 90.8183 57.1623 92.0224L92.4349 101.203L94.0041 131.078C94.2125 135.044 94.9631 138.955 96.2364 142.701L96.8638 144.546C98.0037 147.9 101.064 150.154 104.478 150.154H105.678C108.186 150.154 110.346 148.379 110.932 145.838C111.292 144.272 111.05 142.651 110.249 141.277C110.049 140.932 109.78 140.623 109.426 140.331C107.085 138.406 105.523 135.95 104.907 133.223L104.868 133.053C104.789 132.702 104.774 132.344 104.824 131.988L110.03 94.7315C118.548 87.4095 120.481 78.8825 120.577 72.9407C120.734 63.2745 121.724 54.1184 123.521 45.7265C124.119 42.9342 124.619 40.5108 125.015 38.4789C130.205 41.0356 136.905 42.2559 142.039 42.8378C146.235 43.3123 150.306 41.5356 152.93 38.0827C153.841 36.8831 154.194 35.3359 153.897 33.8372ZM149.099 34.9221C147.524 36.9941 145.082 38.0613 142.567 37.7758C134.524 36.8648 128.163 34.9652 124.655 32.4268C123.973 31.9325 123.095 31.8341 122.326 32.1661C121.558 32.498 121.004 33.215 120.857 34.068C120.439 36.4992 119.73 40.0485 118.752 44.6182C116.883 53.3452 115.854 62.8454 115.691 72.8552C115.61 77.8159 114.109 82.2855 111.219 86.2113L113.081 72.8888C113.275 71.4974 112.35 70.2051 111.015 70.0028C109.681 69.8015 108.44 70.7638 108.245 72.1552L99.9875 131.256C99.849 132.247 99.8907 133.244 100.111 134.222L100.15 134.392C100.999 138.154 103.076 141.516 106.163 144.133C106.204 144.269 106.226 144.446 106.179 144.65C106.123 144.893 105.917 145.062 105.677 145.062H104.477C103.128 145.062 101.919 144.172 101.469 142.847L100.842 141.002C99.724 137.714 99.0653 134.282 98.8825 130.801L96.7456 90.118C96.6716 88.714 95.5263 87.6346 94.1725 87.715C92.8251 87.7921 91.7928 88.9924 91.8665 90.396L92.1547 95.8829L58.3458 87.083C55.9385 86.4564 53.5041 86.4373 51.2059 86.953L53.0731 83.7468C53.7728 82.5445 53.4054 80.979 52.2519 80.2495C51.0991 79.52 49.596 79.9029 48.8957 81.1052L41.1118 94.4715C36.0421 103.177 29.4003 110.534 21.3711 116.338L11.3066 123.613C9.52704 124.9 8.31166 126.916 7.97255 129.144L6.40274 139.451C6.08383 141.542 7.05099 143.659 8.81006 144.721C9.71598 145.267 10.2844 146.277 10.3023 147.366H6.34932C5.79619 147.366 5.44144 147.062 5.27954 146.882C5.11764 146.701 4.85183 146.312 4.88961 145.738C5.26684 140.016 5.90955 129.664 6.10207 122.817C16.9578 110.166 19.816 102.473 21.1678 96.6077C21.7122 94.2461 21.9503 91.8323 21.8757 89.433C21.6063 80.8038 23.2729 73.9876 26.6949 69.7207C28.5748 67.3771 31.4933 66.0061 34.4869 66.0651C34.7166 66.0692 34.9472 66.0712 35.1831 66.0712C49.194 66.0705 73.9126 58.717 87.5421 54.2824C93.8865 52.2182 99.2832 47.8243 102.738 41.9097L110.267 29.0204C112.161 25.7786 114.324 22.711 116.698 19.9023C119.076 17.09 121.1 14.5801 122.763 12.3807C121.874 16.3099 120.395 18.7431 120.339 18.8351C119.597 20.0055 119.904 21.5816 121.026 22.3583C122.149 23.1366 123.666 22.8179 124.412 21.6468C124.493 21.5202 125.301 20.2272 126.161 18.0258L132.096 20.8545C132.452 21.048 132.788 21.273 133.104 21.5242C131.906 21.7815 131.056 22.938 131.166 24.2388C131.278 25.5637 132.344 26.562 133.597 26.562C133.668 26.562 133.741 26.5586 133.814 26.5522L136.23 26.3309C137.054 27.6191 138.168 28.6941 139.49 29.4362L149.078 34.8192C149.091 34.8263 149.105 34.8345 149.111 34.8657C149.118 34.8969 149.108 34.9095 149.099 34.9221Z" fill="#242424"/>
</svg>
